<svg xmlns="http://www.w3.org/2000/svg" viewBox="0 0 1200 150.5711"><defs><style>.cls-1{fill:#00629b;}.cls-2{fill:#75787b;}.cls-3{fill:#b2b2b2;}.cls-4{fill:#1d1d1b;}.cls-5{fill:#f7a400;}</style></defs><g id="Capa_2" data-name="Capa 2"><g id="Final"><path class="cls-1" d="M4.9838,87.9982c-.1123,2.5075-.1871,5.4644-.1871,11.9017,0,7.1859.0748,10.2551.2993,14.11l-.2245.2619c-1.647.0374-2.1708.0374-4.1546.1123l-.2244-.2619c.0748-2.2831.15-4.2669.15-9.0949,0-5.6511,0-11.2652-.2619-16.8794l.1871-.2993c1.647,0,2.2456,0,4.1546-.1122Z"/><path class="cls-1" d="M26.4763,111.2025c-.1123,1.273-.1123,1.5348-.1871,2.8073l-.2619.2619c-7.2981,0-8.4588.0374-15.57.1123l-.1871-.2619c.1123-2.957.2245-4.9777.2245-11.8269,0-6.2876,0-9.8806-.2619-14.1848l.2245-.2619c7.3738-.0374,8.833-.0374,15.72-.1122l.2245.2619c-.1123,1.1228-.1871,1.5717-.2619,2.9195l-.2254.2619c-4.8271-.15-6.4368-.15-11.19-.1871-.1122,3.4429-.1122,4.5283-.1122,7.9716,4.6035.0374,6.0261,0,10.5922-.0748l.1862.2619a26.3412,26.3412,0,0,0-.1862,2.8821l-.2244.2619c-4.3417-.1123-5.2779-.1123-10.3678-.1123-.0748,4.3417-.0374,5.3893,0,8.9448,5.652,0,6.8118,0,11.64-.1871Z"/><path class="cls-1" d="M46.2043,111.2025c-.1131,1.273-.1131,1.5348-.188,2.8073l-.2618.2619c-7.2982,0-8.458.0374-15.57.1123l-.1862-.2619c.1114-2.957.2245-4.9777.2245-11.8269,0-6.2876,0-9.8806-.2628-14.1848l.2245-.2619c7.3739-.0374,8.833-.0374,15.7205-.1122l.2245.2619c-.1132,1.1228-.188,1.5717-.2628,2.9195l-.2245.2619c-4.828-.15-6.4368-.15-11.1908-.1871-.1114,3.4429-.1114,4.5283-.1114,7.9716,4.6027.0374,6.0252,0,10.5914-.0748l.187.2619a26.551,26.551,0,0,0-.187,2.8821l-.2245.2619c-4.3417-.1123-5.277-.1123-10.3669-.1123-.0748,4.3417-.0383,5.3893,0,8.9448,5.6511,0,6.8109,0,11.64-.1871Z"/><path class="cls-1" d="M65.9314,111.2025c-.1122,1.273-.1122,1.5348-.1871,2.8073l-.2627.2619c-7.2982,0-8.458.0374-15.5691.1123l-.187-.2619c.1122-2.957.2244-4.9777.2244-11.8269,0-6.2876,0-9.8806-.2619-14.1848l.2245-.2619c7.373-.0374,8.833-.0374,15.72-.1122l.2245.2619c-.1123,1.1228-.1871,1.5717-.2619,2.9195L65.37,91.18c-4.8289-.15-6.4376-.15-11.1908-.1871-.1123,3.4429-.1123,4.5283-.1123,7.9716,4.6036.0374,6.0253,0,10.5914-.0748l.1879.2619a26.791,26.791,0,0,0-.1879,2.8821l-.2245.2619c-4.3416-.1123-5.277-.1123-10.3669-.1123-.0748,4.3417-.0374,5.3893,0,8.9448,5.6511,0,6.8118,0,11.64-.1871Z"/><path class="cls-1" d="M90.5892,99.3008c2.7329,1.1981,6.3629,2.77,6.3629,7.5605,0,4.1916-3.1062,7.9716-9.6187,7.9716a16.213,16.213,0,0,1-7.41-1.6466l-.15-.2619c.15-1.31.187-2.0212.2993-3.4433l.3741-.15a11.0411,11.0411,0,0,0,6.5865,2.2083c3.8561,0,5.4649-1.9838,5.4649-4.2294,0-2.62-2.1709-3.63-4.6036-4.5662l-1.8706-.8231C83.3659,100.686,79.81,99.0764,79.81,94.51a6.9168,6.9168,0,0,1,1.1607-3.93c1.7219-2.47,4.828-3.2936,7.86-3.2936a19.5737,19.5737,0,0,1,6.7361,1.1976l.188.3c-.15,1.4221-.188,1.9459-.3,3.2932l-.2993.15a12.3527,12.3527,0,0,0-6.1749-1.7219c-3.1071,0-5.0534,1.46-5.0534,3.6678A3.3573,3.3573,0,0,0,85.836,97.13a20.2815,20.2815,0,0,0,2.8817,1.3473Z"/><path class="cls-1" d="M108.8607,111.3152c-.1122,1.2351-.1122,1.497-.15,2.5824l-.1871.2245a10.1782,10.1782,0,0,1-2.8068.3367c-.8979,0-3.2558,0-4.4165-1.9459-.6734-1.0854-.6734-1.9838-.6734-6.4l.0748-8.2339c-1.31,0-1.3478.0374-2.6955.0748l-.15-.2245c.0749-1.1976.0749-1.4969.0749-2.6946l.2244-.2244c.824,0,1.31.0374,2.5459,0-.0374-.7862-.0374-1.61-.0374-2.3954q-.0561-1.0668-.1123-2.1334l.1871-.2619c1.6836-.4119,2.096-.5242,3.817-1.048l.2628.1871c-.1132,2.47-.15,2.9565-.15,5.689,1.5714-.0374,2.02-.0374,4.1537-.1123l.1871.2245c-.0748.9732-.1122,1.3847-.1122,2.6572l-.1871.2245c-1.8715-.0374-2.096-.0748-4.08-.0748l-.0748,6.9614c.0383.449.0383,2.5824.0383,3.1066,0,2.732.3358,3.593,2.2082,3.593a5.0939,5.0939,0,0,0,1.7958-.3372Z"/><path class="cls-1" d="M128.4434,94.9222c-.0748,2.8443-.1113,5.5015-.1113,8.5332,0,4.6036.1113,7.373.1862,8.9822,0,.5242.0382,1.048.0748,1.5722l-.15.2245c-1.7958.0374-2.0951.0748-3.817.15l-.2244-.2245.0374-1.5718a9.5641,9.5641,0,0,1-5.8765,2.133,6.9852,6.9852,0,0,1-4.2668-1.2725c-2.3945-1.9459-2.3945-5.1273-2.4327-8.0464v-2.32c-.0749-5.3523-.0749-5.9509-.1862-7.972l.1862-.2619c1.7592-.0374,2.0968-.0374,3.8552-.1871l.2254.2619-.1505,8.1965c0,1.0106-.0374,1.7589,0,3.5555.0374,1.5718.1122,4.94,3.8927,4.94a7.4621,7.4621,0,0,0,4.6783-1.9463c.0375-2.0212.0375-3.7426.0375-5.9135a77.1438,77.1438,0,0,0-.2619-8.6829l.2244-.2618c1.721-.0375,2.1335-.0375,3.8545-.15Z"/><path class="cls-1" d="M145.6221,85.1913c1.909-.3371,2.2831-.412,3.9676-.7861l.2618.2245c-.2618,5.2026-.2993,14.4841-.2993,18.2267,0,5.8012.15,8.5711.2993,11.1534l-.187.2619c-1.6462,0-2.096.0374-3.8179.1123l-.261-.2245.0748-1.3847a7.9219,7.9219,0,0,1-5.1656,1.871c-4.9777,0-8.4214-3.93-8.4214-9.6186a10.3961,10.3961,0,0,1,3.2941-8.0464c2.732-2.4706,6.2871-2.5828,8.2343-2.5828.7857,0,1.16,0,2.17.0748a82.889,82.889,0,0,0-.3367-9.057Zm.0383,12.3133c-.6369-.0374-1.0858-.1123-1.8724-.1123a6.8572,6.8572,0,0,0-7.5974,7.6349,7.0848,7.0848,0,0,0,1.3851,4.6036,4.9266,4.9266,0,0,0,3.8544,1.6844,6.21,6.21,0,0,0,4.192-1.647C145.697,104.7653,145.697,103.6425,145.66,97.5046Z"/><path class="cls-1" d="M169.8223,109.7056c-.1871,1.4969-.2245,1.8715-.2993,3.331l-.2245.2619a12.227,12.227,0,0,1-5.9878,1.4222c-6.1384,0-9.9937-3.5182-9.9937-10.03,0-6.9615,4.192-10.3674,9.0949-10.3674a7.8179,7.8179,0,0,1,6.1384,2.5824c2.1334,2.5454,2.0585,6.2506,2.02,7.8972l-.2611.2245c-5.839-.0374-6.8492-.0374-12.9875,0a7.2938,7.2938,0,0,0,1.4226,4.6784,6.0683,6.0683,0,0,0,4.8271,2.0212,9.7651,9.7651,0,0,0,3.2567-.5617,9.438,9.438,0,0,0,2.6946-1.6466Zm-3.48-9.7683a4.1843,4.1843,0,0,0-4.08-2.9191c-2.096,0-4.5661,1.4221-4.94,5.1647,4.5287.0375,5.95,0,9.3941-.0374A8.1862,8.1862,0,0,0,166.342,99.9373Z"/><path class="cls-1" d="M190.7962,114.2343c-1.7958.0374-2.0211.0374-3.743.15l-.261-.2619c0-.4116.0365-.8236.0365-1.2351.0383-1.8341.0383-3.6678.0383-5.5019,0-5.7638-.0383-6.1379-.2245-6.924-.7117-2.8443-2.8451-2.8443-3.3689-2.8443a8.2,8.2,0,0,0-4.9777,2.096c-.0374,6.5121.0374,9.918.2993,14.297l-.2244.2245c-1.8342.0374-2.1335.0374-3.93.15l-.187-.2619c.0374-2.096.1122-4.1172.1122-6.8867,0-5.9882-.2619-9.17-.4489-11.6772l.2244-.2619c1.8716-.3367,2.2083-.4115,3.9676-.7482l.2619.2619-.0375,1.9459a11.3322,11.3322,0,0,1,6.5865-2.32,6.469,6.469,0,0,1,3.107.7113,5.0716,5.0716,0,0,1,2.1708,2.4327c.4864,1.1228.5238,2.2456.5612,4.5661v4.3791c.1123,4.3786.15,6.0631.2619,7.4852Z"/><path class="cls-1" d="M204.3259,111.3152c-.1132,1.2351-.1132,1.497-.15,2.5824l-.1879.2245a10.174,10.174,0,0,1-2.8069.3367c-.8979,0-3.2558,0-4.4165-1.9459-.6734-1.0854-.6734-1.9838-.6734-6.4l.0748-8.2339c-1.31,0-1.3468.0374-2.6946.0748l-.15-.2245c.0748-1.1976.0748-1.4969.0748-2.6946l.2245-.2244c.8239,0,1.31.0374,2.5449,0-.0374-.7862-.0374-1.61-.0374-2.3954l-.1122-2.1334.1879-.2619c1.6836-.4119,2.0951-.5242,3.817-1.048l.2619.1871c-.1122,2.47-.15,2.9565-.15,5.689,1.5713-.0374,2.0211-.0374,4.1537-.1123l.1879.2245c-.0748.9732-.1131,1.3847-.1131,2.6572l-.1862.2245c-1.8715-.0374-2.0969-.0748-4.08-.0748l-.0748,6.9614c.0374.449.0374,2.5824.0374,3.1066,0,2.732.3367,3.593,2.2083,3.593a5.0861,5.0861,0,0,0,1.7958-.3372Z"/><path class="cls-1" d="M218.8421,114.384l-.187-.2619c.0748-1.7967.1122-3.5182.1122-6.9241,0-1.6092.0383-9.4315.0383-11.19,0-3.93-.1131-5.9508-.2628-7.8972l.1871-.2619,5.016-.0748c.7482-.0374,1.908-.0374,2.9182-.0374,2.2082,0,4.5661.0748,6.4376,1.16a5.6639,5.6639,0,0,1,2.9574,5.1273c0,1.31-.3741,5.0526-5.5772,6.325a8.9152,8.9152,0,0,1,3.4438.6739,5.8274,5.8274,0,0,1,3.5551,5.6515,7.2544,7.2544,0,0,1-5.1273,6.9611c-1.9838.7112-3.9667.7112-6.9241.7112Zm4.0424-15.2328c3.3689.0374,5.9513,0,7.5226-1.2351a4.3534,4.3534,0,0,0,1.5348-3.2558,3.94,3.94,0,0,0-1.0475-2.6576c-1.31-1.2725-3.6308-1.2725-4.4913-1.2725-1.1981,0-2.3579.0374-3.5186.1122Zm0,3.144c0,4.2668,0,4.9028.15,8.9822h.7118c2.8068,0,5.09.0378,6.549-.5612a4.2379,4.2379,0,0,0,2.8068-4.1168c0-4.379-4.828-4.4165-6.6238-4.4165-.3376,0-.6743,0-2.6955.0749Z"/><path class="cls-1" d="M250.0255,98.7022a3.8445,3.8445,0,0,0-1.4965-.3367,2.7864,2.7864,0,0,0-1.5714.4864c-1.5348,1.0854-1.5348,2.732-1.5348,6.6247,0,4.229.1123,6.4372.2619,8.5332l-.1871.2619c-1.7592,0-2.1708.0374-3.9675.1123l-.187-.2245c.0374-2.8443.0748-5.4271.0748-8.9078a80.3551,80.3551,0,0,0-.3367-9.6935l.2244-.2619c1.4217-.2619,2.3205-.4489,3.8927-.7482l.2245.2244-.1879,3.181c.45-1.1976,1.3851-3.5929,4.5661-3.5929a3.8824,3.8824,0,0,1,1.0485.1122l.15.2249c-.3741,1.7963-.449,2.17-.7108,3.8175Z"/><path class="cls-1" d="M267.3156,106.562a70.0769,70.0769,0,0,0,.2244,7.4852l-.1879.1871c-1.7584.0374-2.0586.0748-3.78.15l-.15-.2245.0374-1.3473a8.0178,8.0178,0,0,1-5.24,1.9085,6.0225,6.0225,0,0,1-6.3628-6.25c0-5.0151,4.192-6.6243,10.9281-7.41l.6369-.0748a4.6834,4.6834,0,0,0-.3368-2.32c-.375-.6739-1.2346-1.3847-3.107-1.3847a13.3539,13.3539,0,0,0-5.6885,1.4221l-.2993-.187c.0748-1.7219.0748-1.9464.1122-2.7321l.2245-.2249a19.3007,19.3007,0,0,1,6.4751-1.2351c2.7694,0,5.464.9358,6.25,3.8553a24.9676,24.9676,0,0,1,.2628,4.678Zm-4.192-2.7324c-3.7805.5616-7.2982,1.0854-7.2982,4.4164a3.3,3.3,0,0,0,3.5551,3.4059,5.8387,5.8387,0,0,0,4.08-1.647v-6.25Z"/><path class="cls-1" d="M288.547,114.2343c-1.7958.0374-2.02.0374-3.7421.15l-.2619-.2619c0-.4116.0374-.8236.0374-1.2351.0374-1.8341.0374-3.6678.0374-5.5019,0-5.7638-.0374-6.1379-.2245-6.924-.7117-2.8443-2.8451-2.8443-3.3689-2.8443a8.197,8.197,0,0,0-4.9768,2.096c-.0383,6.5121.0365,9.918.2993,14.297l-.2245.2245c-1.8341.0374-2.1334.0374-3.931.15l-.1862-.2619c.0366-2.096.1114-4.1172.1114-6.8867,0-5.9882-.261-9.17-.4489-11.6772l.2244-.2619c1.8724-.3367,2.2083-.4115,3.9676-.7482l.2627.2619-.0383,1.9459a11.3353,11.3353,0,0,1,6.5873-2.32,6.4736,6.4736,0,0,1,3.1071.7113,5.07,5.07,0,0,1,2.17,2.4327c.4873,1.1228.5238,2.2456.5621,4.5661v4.3791c.1114,4.3786.15,6.0631.261,7.4852Z"/><path class="cls-1" d="M307.1892,109.8178c-.15,1.61-.1862,1.7967-.2993,3.3311l-.2619.2619a10.5427,10.5427,0,0,1-5.1647,1.2725c-5.6512,0-9.3194-4.0794-9.3194-9.918,0-5.9508,3.5934-10.4422,9.3942-10.4422a12.3067,12.3067,0,0,1,5.1273,1.1977l.15.2623c-.15,1.3473-.1871,1.8337-.2619,2.9565l-.2993.15a7.09,7.09,0,0,0-4.1546-1.46c-3.1062,0-5.8382,2.3953-5.8382,7.186,0,5.09,2.8817,6.924,5.8016,6.924a7.4171,7.4171,0,0,0,4.8272-1.8715Z"/><path class="cls-1" d="M326.6483,114.2343c-1.7967.0374-2.0211.0374-3.7421.15l-.2628-.2619.0383-1.2351c.0365-1.9464.0365-3.93.0365-5.876l-.0365-4.0045a11.4548,11.4548,0,0,0-.1879-2.5454,3.2678,3.2678,0,0,0-3.3681-2.8443,8.5635,8.5635,0,0,0-5.0151,2.096c-.0374,6.5121.0374,9.918.2619,14.297l-.1871.2245c-1.7218.0374-2.1708.0374-4.0049.15l-.1871-.2619c.0749-2.6572.1871-6.0257.1871-13.2116,0-3.144-.0374-6.2876-.0748-9.4316-.0749-3.2937-.1871-4.3791-.2993-6.0631l.187-.2245c1.7967-.3,2.3953-.412,4.08-.7861l.2245.2619c-.2245,4.0049-.2245,8.0469-.2245,12.0888a12.0773,12.0773,0,0,1,6.7-2.32,6.3441,6.3441,0,0,1,2.5075.4494A5.0181,5.0181,0,0,1,326.349,98.44a17.1154,17.1154,0,0,1,.2619,3.7052v4.3791l.0374,1.7588c.0749,3.1441.0749,3.6678.2245,5.7264Z"/><path class="cls-1" d="M24.8066,42.6809l-.1279,12.7026v4.3626c-.0853,5.4318-.2567,7.9124-2.5232,10.3073-3.1653,3.3363-7.87,3.3363-9.41,3.3363-5.7312,0-9.0244-2.1387-10.65-4.4483C.6,66.8885.3428,64.5789.214,59.96V56.7948C.1714,50.1231.1714,48.9254,0,42.8093l.2575-.2567c2.9078.0431,3.8919.0431,7.527-.1283l.2141.2566c-.0862,4.2342-.1279,7.5274-.1279,10.9921,0,2.2665,0,4.5335.0852,6.8.0853,2.6946.342,4.1916.9832,5.3035a5.0512,5.0512,0,0,0,4.3626,2.267,4.94,4.94,0,0,0,3.7639-1.54c1.1546-1.3686,1.2825-3.4216,1.2825-7.912,0-5.2609-.2132-10.5214-.4272-15.7822l.2566-.2567c2.438.0431,3.2933.0431,6.4159-.1283Z"/><path class="cls-1" d="M49.9612,72.7054c-3.4219,0-4.1493.0426-6.9718.1283l-.2567-.2567c0-1.4543.0426-2.9513.0426-4.4052,0-1.6252-.0426-7.4847-.1279-8.896-.1287-1.54-.3428-4.0632-2.6946-4.0632a5.8689,5.8689,0,0,0-3.2932,1.326c.0426,7.6557.0853,9.3236.3419,15.91l-.2566.2567c-3.4212,0-4.0633,0-7.1425.1283l-.2566-.2567c.0426-2.7372.0852-5.4745.0852-8.2117a118.82,118.82,0,0,0-.5986-13.3869l.2567-.2993c3.208-.4277,3.9353-.556,7.2277-1.24l.4281.2993L36.66,52.09c1.9672-1.1546,4.2338-2.5232,6.8431-2.5232a5.8687,5.8687,0,0,1,5.3031,2.5658c1.0693,1.7537,1.1119,3.7213,1.1554,7.8272V63.296c.0853,4.1915.0853,5.3888.2994,9.1527Z"/><path class="cls-1" d="M61.96,72.748c-3.4646-.0426-4.32,0-7.3991.1283l-.2575-.2993c.1288-3.5072.2575-6.1162.2575-10.778A81.1263,81.1263,0,0,0,54.09,50.9784l.2567-.2567,7.3556-1.2829.2993.3419c-.0418,3.6356-.1279,7.3138-.1279,10.949,0,5.9021.1714,8.4258.3854,11.719Zm-.5986-27.1158c-3.0365.385-3.8492.47-6.7587.9836l-.2993-.2566c.0435-.8127.0435-1.668.0435-2.4806,0-1.0263-.0435-1.9246-.1288-3.4642l.2567-.2993,6.9719-.8557.2558.2566-.1279,5.8169Z"/><path class="cls-1" d="M78.4961,72.748c-3.0783-.0426-4.1911,0-6.971.1283l-.2993-.2993c-.9414-3.5072-1.4113-5.09-7.1-21.941l.17-.342a56.24,56.24,0,0,0,7.4853-.4707l.2993.2567c.5995,2.823.77,3.6356,1.8393,7.6131l.8127,3.2933,1.0693,4.6192,2.18-8.4258c.8561-3.3359.9849-3.9345,1.5835-6.8l.2993-.3,5.9878-.1283.2132.3c-1.1972,3.5068-3.0792,9.067-4.2338,12.5312-.8987,2.6946-1.7114,5.3462-3.0791,9.6234Z"/><path class="cls-1" d="M106.7056,66.5466l-.2993,4.8328-.2567.3419a16.5146,16.5146,0,0,1-7.3565,1.54c-3.08,0-8.8956-.5133-11.377-6.2871a14.2419,14.2419,0,0,1-1.0267-5.6028c0-7.3991,4.4487-11.8043,11.163-11.8043a10.9512,10.9512,0,0,1,3.0366.3846c1.4547.3423,4.7479,1.3686,6.2453,6.4154a25.1138,25.1138,0,0,1,.6839,6.3729l-.2567.2993-13.8141.2567a6.051,6.051,0,0,0,.9406,2.6089c1.0258,1.54,2.78,2.3522,5.3466,2.3522a13.0725,13.0725,0,0,0,6.6717-1.8389Zm-6.1166-7.9551a5.22,5.22,0,0,0-.6413-2.9513A3.2818,3.2818,0,0,0,95.5,54.614a5.1,5.1,0,0,0-2.0525,4.1485Z"/><path class="cls-1" d="M122.9463,57.0515a3.2,3.2,0,0,0-1.7532-.5986c-2.9086,0-2.9086,2.8229-2.9086,4.7475,0,2.9508.2575,7.7837.4281,11.2483l-.2141.2993c-3.4211-.0426-4.105,0-7.27.1283l-.2567-.2566c.0853-3.55.1279-7.0568.1279-10.564,0-5.9452-.1279-7.87-.3845-11.0773l.2566-.2567c3.1227-.47,3.9345-.5986,7.1-1.2829l.342.3419-.1288,3.9349c1.37-3.1649,3.3367-4.1485,5.09-4.1485.2993,0,.5986.0426.8979.0426l.2576.2993-1.1981,6.9715Z"/><path class="cls-1" d="M137.8724,58.7625c2.3518.8979,5.6459,2.1382,5.6459,6.8431a7.1324,7.1324,0,0,1-.0435.941c-.7691,6.1157-7.1851,6.7147-10.4356,6.7147a17.821,17.821,0,0,1-7.0146-1.4543l-.2131-.385c.1714-2.1382.2131-2.6089.2993-4.8328l.3854-.171a9.3747,9.3747,0,0,0,1.7106,1.1972,10.698,10.698,0,0,0,4.5331,1.1977c2.3953,0,3.3793-1.1546,3.3793-2.2239,0-1.54-1.8828-2.1813-3.0365-2.5663l-1.6253-.5986c-2.0108-.77-5.5607-2.1386-5.5607-6.7148a6.436,6.436,0,0,1,1.1546-3.7639c2.2239-3.2075,6.4159-3.3785,8.5111-3.3785a21.7877,21.7877,0,0,1,6.5446,1.0689l.2132.2567-.4272,4.6618-.3854.1283a9.2809,9.2809,0,0,0-5.3466-1.7962c-2.6511,0-2.9931,1.4112-2.9931,1.9246,0,1.1976,1.1546,1.6679,2.6085,2.1812Z"/><path class="cls-1" d="M154.2585,72.748c-3.4638-.0426-4.3191,0-7.3991.1283l-.2558-.2993c.1279-3.5072.2558-6.1162.2558-10.778a81.1618,81.1618,0,0,0-.47-10.8206l.2567-.2567,7.3565-1.2829.2993.3419c-.0435,3.6356-.1288,7.3138-.1288,10.949,0,5.9021.1714,8.4258.3846,11.719ZM153.66,45.6322c-3.0366.385-3.8492.47-6.757.9836l-.2993-.2566c.0426-.8127.0426-1.668.0426-2.4806,0-1.0263-.0426-1.9246-.1279-3.4642l.2558-.2993,6.971-.8557.2576.2566-.1288,5.8169Z"/><path class="cls-1" d="M179.4192,72.748c-3.208,0-4.0206,0-6.9719.1283l-.2132-.2566.0853-1.668a7.838,7.838,0,0,1-5.6459,2.31,9.0159,9.0159,0,0,1-5.6024-1.8819c-2.5232-2.0956-3.422-5.4319-3.422-8.7677,0-4.4052,1.24-7.9551,4.2347-10.2647,3.2506-2.5663,7.27-2.4806,10.4782-2.3953.0427-4.8755,0-5.9448-.2566-9.965l.214-.2566,7.0563-1.112.2993.2563c-.1705,5.6459-.3411,10.3077-.3411,21.5986,0,5.6028.1279,8.1691.2993,12.0183Zm-8.511-17.7921c-4.7907,0-5.7321,3.6782-5.7321,6.9714,0,.8553,0,6.1588,4.1494,6.1588a5.4122,5.4122,0,0,0,2.9086-1.0266c.1279-5.1748.1706-6.2872.1279-11.9753A9.5645,9.5645,0,0,0,170.9082,54.9559Z"/><path class="cls-1" d="M202.9007,63.1676c0,4.02,0,5.0895.2993,9.2811l-.2141.2993c-2.78-.0426-3.72,0-6.8.1283l-.2558-.2993V70.9944a8.8462,8.8462,0,0,1-5.9461,2.2669,7.22,7.22,0,0,1-7.4844-7.5274,6.8393,6.8393,0,0,1,3.208-5.86c2.5658-1.5827,4.9611-2.0529,10.0937-2.7372a2.7006,2.7006,0,0,0-.556-1.8394c-.556-.5559-1.1981-.8122-2.78-.8122a19.8406,19.8406,0,0,0-7.1432,1.7106l-.3411-.171.2132-4.6618.2566-.3424a26.0307,26.0307,0,0,1,8.3823-1.4113c5.4745,0,7.1859,1.7106,8.0412,3.0792,1.1119,1.7967,1.1119,3.4646,1.0693,7.3138Zm-7.0145-1.54c-2.9078.385-6.2872.8553-6.2872,3.6783a2.5261,2.5261,0,0,0,2.8225,2.6089,6.93,6.93,0,0,0,3.4647-1.112Z"/><path class="cls-1" d="M228.0214,72.748c-3.208,0-4.0206,0-6.9719.1283l-.2132-.2566.0853-1.668a7.838,7.838,0,0,1-5.6459,2.31,9.0159,9.0159,0,0,1-5.6024-1.8819c-2.5232-2.0956-3.422-5.4319-3.422-8.7677,0-4.4052,1.24-7.9551,4.2347-10.2647,3.2506-2.5663,7.27-2.4806,10.4782-2.3953.0427-4.8755,0-5.9448-.2566-9.965l.214-.2566,7.0563-1.112.2993.2563c-.1705,5.6459-.3411,10.3077-.3411,21.5986,0,5.6028.1279,8.1691.2993,12.0183ZM219.51,54.9559c-4.7906,0-5.732,3.6782-5.732,6.9714,0,.8553,0,6.1588,4.1494,6.1588a5.4122,5.4122,0,0,0,2.9086-1.0266c.1279-5.1748.1706-6.2872.1279-11.9753A9.5646,9.5646,0,0,0,219.51,54.9559Z"/><path class="cls-1" d="M257.9553,48.0271c-.0852,2.7372-.1287,4.0632-.1287,6.4155,0,6.03.0861,12.0182.2993,18.0061l-.2558.2567c-3.55,0-4.4061.0426-7.57.1709l-.2567-.2566c.3428-10.6067.3428-13.3013.2993-24.5069l-6.971.1709-.214-.2566.2993-5.26.2993-.2566h21.1705l.2141.1283-.2993,5.3461-.2567.2141Z"/><path class="cls-1" d="M284.1323,66.5466l-.2993,4.8328-.2558.3419a16.5212,16.5212,0,0,1-7.3573,1.54c-3.0792,0-8.8956-.5133-11.3762-6.2871a14.2258,14.2258,0,0,1-1.0267-5.6028c0-7.3991,4.4487-11.8043,11.163-11.8043a10.9554,10.9554,0,0,1,3.0366.3846c1.4539.3423,4.7479,1.3686,6.2445,6.4154a25.0775,25.0775,0,0,1,.6838,6.3729l-.2558.2993-13.815.2567a6.0428,6.0428,0,0,0,.9415,2.6089c1.0258,1.54,2.779,2.3522,5.3457,2.3522a13.0725,13.0725,0,0,0,6.6717-1.8389Zm-6.1157-7.9551a5.227,5.227,0,0,0-.6413-2.9513,3.2818,3.2818,0,0,0-4.4478-1.0262,5.1035,5.1035,0,0,0-2.0534,4.1485Z"/><path class="cls-1" d="M305.5491,66.8032l-.1714,5.1321-.2558.2567a17.9119,17.9119,0,0,1-5.518.941c-9.623,0-12.1888-6.6722-12.1888-11.5907,0-4.3625,1.9672-11.9752,12.0183-11.9752a17.7746,17.7746,0,0,1,5.9878,1.112l.214.2566c-.3428,2.2666-.3854,2.8656-.5568,5.1321l-.4272.1284a6.7631,6.7631,0,0,0-4.1911-1.54c-4.1485,0-5.518,3.5925-5.518,6.7148,0,2.5662.984,6.5864,5.8173,6.5864a7.6188,7.6188,0,0,0,4.4478-1.3686Z"/><path class="cls-1" d="M329.4978,72.7054c-3.4211,0-4.1485.0426-6.971.1283l-.2575-.2567c0-1.4543.0435-2.9513.0435-4.4052,0-1.6252-.0435-7.4847-.1288-8.896-.1288-1.54-.3419-4.0632-2.6937-4.0632a5.8691,5.8691,0,0,0-3.2941,1.326c.0435,7.6557.0852,9.3236.3428,15.91l-.2576.2567c-3.4211,0-4.0632,0-7.1415.1283l-.2575-.2567c.0435-2.7372.0861-5.4745.0861-8.2117a118.7677,118.7677,0,0,0-.5995-13.3869l.2576-.2993c3.207-.4277,3.9344-.556,7.2276-1.24l.4272.2993-.0852,2.3522c1.9681-1.1546,4.2337-2.5232,6.8431-2.5232a5.8671,5.8671,0,0,1,5.3031,2.5658c1.07,1.7537,1.1119,3.7213,1.1554,7.8272V63.296c.0853,4.1915.0853,5.3888.2993,9.1527Z"/><path class="cls-1" d="M344.3064,73.2613c-6.1166,0-8.2117-2.31-9.3236-3.9775a13.5784,13.5784,0,0,1-2.0108-7.8267c0-7.87,4.1912-11.8474,11.6338-11.8474a15.367,15.367,0,0,1,5.2169.8127c5.9878,2.3522,5.9878,9.281,5.9878,10.949C355.8105,67.7868,353.3726,73.2613,344.3064,73.2613Zm2.8652-17.92a3.597,3.597,0,0,0-2.7373-1.326,3.5436,3.5436,0,0,0-3.1226,1.9246c-.8545,1.497-.8545,4.2342-.8545,5.4745,0,4.1489.8127,5.6028,1.5392,6.33a3.46,3.46,0,0,0,2.3953.984c3.55,0,4.02-3.8922,4.02-7.3991C348.4114,59.0191,348.1974,56.5812,347.1716,55.3409Z"/><path class="cls-1" d="M366.4793,72.748c-3.1226-.0426-4.2772,0-7.1432.1283l-.2558-.2993c.1705-4.2342.2558-6.8.2558-11.42,0-2.5232,0-5.0468-.0427-7.57-.0852-6.9288-.1279-8.34-.5559-13.5579l.1714-.2567,7.3129-1.1546.2993.2993c-.1705,4.6192-.2132,6.5438-.2132,10.6066,0,13.5153.2132,18.0062.4272,22.9247Z"/><path class="cls-1" d="M381.2419,73.2613c-6.1158,0-8.2118-2.31-9.3237-3.9775a13.5853,13.5853,0,0,1-2.0108-7.8267c0-7.87,4.192-11.8474,11.6338-11.8474a15.3746,15.3746,0,0,1,5.2178.8127c5.9878,2.3522,5.9878,9.281,5.9878,10.949C392.7468,67.7868,390.3089,73.2613,381.2419,73.2613Zm2.8651-17.92a3.5954,3.5954,0,0,0-2.7372-1.326,3.5434,3.5434,0,0,0-3.1219,1.9246c-.8552,1.497-.8552,4.2342-.8552,5.4745,0,4.1489.8126,5.6028,1.5391,6.33a3.46,3.46,0,0,0,2.3953.984c3.55,0,4.0206-3.8922,4.0206-7.3991C385.3477,59.0191,385.1337,56.5812,384.107,55.3409ZM388,40.0294c-1.37,2.0955-3.2941,5.0468-4.62,7.2281l-.2993.171H378.462l-.1714-.2567A46.6889,46.6889,0,0,0,380.9,40.0294l.2141-.2141,6.7569-.0852Z"/><path class="cls-1" d="M403.5775,67.0168a17.9894,17.9894,0,0,0,4.2337,1.0693l1.0267.171c2.78.6417,7.4844,1.6679,7.4844,7.0572,0,4.1485-3.5926,8.0834-11.42,8.0834-1.6679,0-4.9185-.0857-7.313-1.7963a6.03,6.03,0,0,1-2.652-4.8332c0-2.78,2.01-4.4052,3.2933-5.3888l-1.7959-1.283v-.385c.9832-1.7536,1.6245-2.9082,2.8226-5.2178a7.35,7.35,0,0,1-2.8661-2.3953,6.9311,6.9311,0,0,1-1.24-4.1485,7.1736,7.1736,0,0,1,2.7372-5.7738c2.78-2.31,6.8431-2.2243,9.88-2.1386l1.9672.0426c2.6946.0431,3.5926,0,6.8858-.1283l.2566.214-.2993,4.2769-.2566.214-2.9513-.171a5.5934,5.5934,0,0,1,1.1554,3.7209c0,4.1485-3.2505,5.9878-5.4745,6.7574a12.0018,12.0018,0,0,1-4.7906.556Zm-1.112,6.33a4.0645,4.0645,0,0,0-1.2407,2.8229c0,1.497,1.0693,3.2933,4.2338,3.2933,2.8233,0,3.8927-1.326,3.8927-2.6089a1.8863,1.8863,0,0,0-.8553-1.668c-.5134-.4276-.556-.4276-4.3626-1.4112Zm2.4806-19.2891c-1.5827,0-2.866,1.3687-2.866,3.5073a5.8854,5.8854,0,0,0,.3854,2.2239,2.7664,2.7664,0,0,0,2.5658,1.7963c.5987,0,2.6947-.2993,2.7373-3.7635C407.8112,55.94,406.9133,54.0575,404.9461,54.0575Z"/><path class="cls-1" d="M426.9363,72.748c-3.4647-.0426-4.32,0-7.3991.1283l-.2567-.2993c.1279-3.5072.2567-6.1162.2567-10.778a81.1437,81.1437,0,0,0-.4707-10.8206l.2566-.2567,7.3565-1.2829.2993.3419c-.0426,3.6356-.1288,7.3138-.1288,10.949,0,5.9021.1714,8.4258.3855,11.719Zm-.6-27.1158c-3.0366.385-3.8492.47-6.757.9836l-.2993-.2566c.0426-.8127.0426-1.668.0426-2.4806,0-1.0263-.0426-1.9246-.1287-3.4642l.2566-.2993,6.9719-.8557.2567.2566-.1288,5.8169Z"/><path class="cls-1" d="M448.3574,66.8032l-.1714,5.1321-.2566.2567a17.9066,17.9066,0,0,1-5.5172.941c-9.623,0-12.19-6.6722-12.19-11.5907,0-4.3625,1.9681-11.9752,12.0183-11.9752a17.7752,17.7752,0,0,1,5.9879,1.112l.214.2566c-.3419,2.2666-.3846,2.8656-.556,5.1321l-.4281.1284a6.7588,6.7588,0,0,0-4.1911-1.54c-4.1485,0-5.5171,3.5925-5.5171,6.7148,0,2.5662.984,6.5864,5.8164,6.5864a7.6165,7.6165,0,0,0,4.4478-1.3686Z"/><path class="cls-1" d="M470.8262,63.1676c0,4.02,0,5.0895.2993,9.2811l-.2141.2993c-2.78-.0426-3.7213,0-6.8.1283l-.2566-.2993V70.9944a8.8427,8.8427,0,0,1-5.9444,2.2669,7.22,7.22,0,0,1-7.4852-7.5274,6.8393,6.8393,0,0,1,3.208-5.86c2.5658-1.5827,4.9611-2.0529,10.0937-2.7372a2.7006,2.7006,0,0,0-.556-1.8394c-.556-.5559-1.1981-.8122-2.78-.8122a19.8313,19.8313,0,0,0-7.1424,1.7106l-.3428-.171.214-4.6618.2567-.3424a26.0315,26.0315,0,0,1,8.3831-1.4113c5.4745,0,7.1851,1.7106,8.04,3.0792,1.1119,1.7967,1.1119,3.4646,1.0693,7.3138Zm-7.0146-1.54c-2.9086.385-6.2871.8553-6.2871,3.6783a2.5261,2.5261,0,0,0,2.8225,2.6089,6.927,6.927,0,0,0,3.4646-1.112Z"/><path class="cls-1" d="M509.1006,72.748c-3.208,0-4.0206,0-6.971.1283l-.214-.2566.0852-1.668a7.8357,7.8357,0,0,1-5.645,2.31,9.0182,9.0182,0,0,1-5.6033-1.8819c-2.5232-2.0956-3.4211-5.4319-3.4211-8.7677,0-4.4052,1.24-7.9551,4.2338-10.2647,3.2506-2.5663,7.2712-2.4806,10.4783-2.3953.0435-4.8755,0-5.9448-.2567-9.965l.214-.2566,7.0572-1.112.2993.2563c-.1714,5.6459-.342,10.3077-.342,21.5986,0,5.6028.1279,8.1691.2993,12.0183ZM500.59,54.9559c-4.79,0-5.7312,3.6782-5.7312,6.9714,0,.8553,0,6.1588,4.1485,6.1588a5.4075,5.4075,0,0,0,2.9087-1.0266c.1279-5.1748.1714-6.2872.1279-11.9753A9.5487,9.5487,0,0,0,500.59,54.9559Z"/><path class="cls-1" d="M532.7622,66.5466l-.2993,4.8328-.2567.3419a16.5141,16.5141,0,0,1-7.3564,1.54c-3.0792,0-8.8965-.5133-11.3771-6.2871a14.2422,14.2422,0,0,1-1.0258-5.6028c0-7.3991,4.4478-11.8043,11.1621-11.8043a10.9512,10.9512,0,0,1,3.0366.3846c1.4548.3423,4.748,1.3686,6.2445,6.4154a25.0384,25.0384,0,0,1,.6847,6.3729l-.2566.2993-13.815.2567a6.0647,6.0647,0,0,0,.9414,2.6089c1.0267,1.54,2.78,2.3522,5.3457,2.3522a13.0734,13.0734,0,0,0,6.6726-1.8389Zm-6.1166-7.9551a5.2269,5.2269,0,0,0-.6412-2.9513,3.2819,3.2819,0,0,0-4.4479-1.0262,5.1034,5.1034,0,0,0-2.0533,4.1485Z"/><path class="cls-1" d="M544.248,72.748c-3.1218-.0426-4.2773,0-7.1424.1283l-.2567-.2993c.1714-4.2342.2567-6.8.2567-11.42,0-2.5232,0-5.0468-.0426-7.57-.0862-6.9288-.1288-8.34-.556-13.5579l.1705-.2567,7.3138-1.1546.2993.2993c-.1714,4.6192-.214,6.5438-.214,10.6066,0,13.5153.214,18.0062.4281,22.9247Z"/><path class="cls-1" d="M571.4464,42.3816c3.208,0,6.8432,0,9.409,1.497,3.55,2.01,3.978,6.0731,3.978,7.9124a10.9934,10.9934,0,0,1-2.2239,6.8858c-3.0792,3.7639-8.2118,3.7639-13.0024,3.7208,0,4.3626,0,5.4319.1714,10.0937l-.214.2567c-3.4211-.0426-4.1059,0-7.27.1283l-.2567-.2566c.1279-5.2179.2567-10.3931.2567-15.6109,0-4.9185-.1288-8.6393-.2993-14.1995l.2558-.2567,5.4318-.0853Zm-1.8393,14.7556c2.5667,0,4.1494-.0857,5.304-.727a4.7135,4.7135,0,0,0,2.2665-4.32c0-2.4806-1.0267-4.4052-4.7906-4.4909-.9406,0-1.8385,0-2.78.0431Z"/><path class="cls-1" d="M606.6043,66.5466l-.2993,4.8328-.2567.3419a16.5141,16.5141,0,0,1-7.3564,1.54c-3.0792,0-8.8965-.5133-11.3771-6.2871a14.2422,14.2422,0,0,1-1.0258-5.6028c0-7.3991,4.4478-11.8043,11.1621-11.8043a10.9616,10.9616,0,0,1,3.0375.3846c1.4539.3423,4.7471,1.3686,6.2436,6.4154a25.0789,25.0789,0,0,1,.6847,6.3729l-.2566.2993-13.815.2567a6.0529,6.0529,0,0,0,.9414,2.6089c1.0267,1.54,2.78,2.3522,5.3457,2.3522a13.0734,13.0734,0,0,0,6.6726-1.8389Zm-6.1157-7.9551a5.2277,5.2277,0,0,0-.6421-2.9513,3.2819,3.2819,0,0,0-4.4479-1.0262,5.1037,5.1037,0,0,0-2.0533,4.1485Z"/><path class="cls-1" d="M622.8451,57.0515a3.2031,3.2031,0,0,0-1.7532-.5986c-2.9087,0-2.9087,2.8229-2.9087,4.7475,0,2.9508.2567,7.7837.4281,11.2483l-.2141.2993c-3.4219-.0426-4.1058,0-7.2711.1283l-.2567-.2566c.0861-3.55.1288-7.0568.1288-10.564,0-5.9452-.1288-7.87-.3855-11.0773l.2567-.2567c3.1227-.47,3.9353-.5986,7.1-1.2829l.3428.3419-.1288,3.9349c1.3686-3.1649,3.3359-4.1485,5.09-4.1485.2993,0,.5986.0426.8979.0426l.2567.2993-1.1972,6.9715Z"/><path class="cls-1" d="M647.68,50.2083q-.1279,6.0309-.1279,12.061c0,5.56.0852,7.1855.2993,10.222l-.2567.2567c-2.78,0-3.72,0-6.8431.1283l-.2993-.2566.0426-1.9246a9.5193,9.5193,0,0,1-6.33,2.5662,7.3231,7.3231,0,0,1-5.6024-2.2669c-1.54-1.7963-1.7541-3.7635-1.7115-8.4254V59.5751c0-4.32-.0426-5.5176-.2993-9.11l.2993-.2567,7.0572-.3419.2993.3419-.0853,8.6394c-.0426,1.0693-.0426,2.1813-.0426,3.2506,0,2.5237,0,5.7738,3.0792,5.7738a5.9158,5.9158,0,0,0,3.2079-1.4113c.0427-1.7105.0427-2.3948.0427-3.6351,0-.6848,0-7.5279-.2993-12.3607l.2993-.2567,6.971-.3419Zm-3.8057-10.1789c-1.3686,2.0955-3.2932,5.0468-4.6192,7.2281l-.2993.171H634.337l-.1714-.2567a46.6994,46.6994,0,0,0,2.6093-7.1424l.2132-.2141,6.7578-.0852Z"/><rect class="cls-2" x="706.8809" width="2.6729" height="150.5711"/><g id="CS"><path class="cls-3" d="M896.2125,141.6616a1.1978,1.1978,0,0,1-.269-.029,1.285,1.285,0,0,1-.989-1.5247L922.6871,9.9294a1.2863,1.2863,0,0,1,2.5159.5367L897.4693,140.6424a1.2881,1.2881,0,0,1-1.2568,1.0192Z"/><path class="cls-4" d="M955.2858,42.2379c-3.1282-.0334-3.9189-.0334-7.1781.0985l-.1322-.1647c0-2.9632.0337-5.8934.0673-8.8243.0313-1.8762.0649-3.7535.0649-5.6313,0-2.8969-.0649-5.0369-.1982-8.561l.1646-.1648c3.2279.0334,3.9189.0334,7.1456-.098l.1322.1648c-.0986,3.2926-.1647,5.2684-.1647,9.0553,0,4.6422.0986,9.3513.2308,13.9608l-.1322.1647Z"/><path class="cls-4" d="M967.3984,32.6233v4.5438c2.5682,0,4.9717-.0662,8.363-.1976l.1983.1976-.33,4.8727-.2957.1981c-4.5114,0-5.2685-.0334-6.2563-.0334-3.6209,0-5.4992.0668-8.6274.1319l-.1646-.23c.1-3.7869.1321-5.8283.1321-10.307,0-7.902-.066-9.2523-.2307-12.6111l.1983-.1982h14.8164l.1647.133-.23,4.5432-.1982.1647h-7.606v4.1816l7.2106-.132.1982.2316-.2631,4.3127-.2308.1982Z"/><path class="cls-4" d="M986.5883,32.6233v4.5438c2.5669,0,4.9716-.0662,8.363-.1976l.1971.1976-.3293,4.8727-.2968.1981c-4.51,0-5.2685-.0334-6.2552-.0334-3.6221,0-5.4992.0668-8.6273.1319l-.1647-.23c.1-3.7869.131-5.8283.131-10.307,0-7.902-.0649-9.2523-.2295-12.6111l.1982-.1982h14.8165l.1646.133-.2307,4.5432-.1971.1647H986.521v4.1816l7.2117-.132.1983.2316-.2644,4.3127-.2307.1982Z"/><path class="cls-4" d="M1005.7758,32.6233v4.5438c2.57,0,4.974-.0662,8.3642-.1976l.1982.1976-.3292,4.8727-.2969.1981c-4.509,0-5.2673-.0334-6.2551-.0334-3.6221,0-5.5.0668-8.6286.1319l-.1634-.23c.1-3.7869.131-5.8283.131-10.307,0-7.902-.0661-9.2523-.23-12.6111l.1983-.1982h14.8164l.1646.133-.2307,4.5432-.1971.1647h-7.6071v4.1816l7.2129-.132.1948.2316-.2621,4.3127-.2307.1982Z"/><path class="cls-4" d="M956.3606,61.1a9.7069,9.7069,0,0,0-4.4117-1.1091,9.4947,9.4947,0,0,0-8.3734,4.8875,10.103,10.103,0,0,0-1.2673,5.0238,10.2229,10.2229,0,0,0,1.2673,5.0465,9.5434,9.5434,0,0,0,3.4841,3.62,9.2918,9.2918,0,0,0,4.8893,1.336,10.21,10.21,0,0,0,4.3213-1.019,13.5755,13.5755,0,0,0,3.9154-2.7378l4.2087,4.5709a19.0879,19.0879,0,0,1-5.9514,4.1645,16.5942,16.5942,0,0,1-6.8569,1.5387,16.8751,16.8751,0,0,1-8.4627-2.1524,15.6859,15.6859,0,0,1-5.9746-5.9036,16.4232,16.4232,0,0,1-2.1716-8.3731,15.8038,15.8038,0,0,1,8.3039-14.12,17.506,17.506,0,0,1,8.5764-2.1276,17.8668,17.8668,0,0,1,12.49,5.2957l-4.1623,5.1139a12.052,12.052,0,0,0-3.825-3.0549Z"/><path class="cls-4" d="M978.4687,61.3262a9.7271,9.7271,0,0,0-3.5757,3.6425,10.27,10.27,0,0,0,3.5978,13.8486,9.219,9.219,0,0,0,4.8661,1.3587,9.1017,9.1017,0,0,0,4.8186-1.3349,9.7063,9.7063,0,0,0,3.4853-3.6663,10.4268,10.4268,0,0,0,1.29-5.137,10.2135,10.2135,0,0,0-1.29-5.0691,9.7562,9.7562,0,0,0-3.4853-3.6425,9.0969,9.0969,0,0,0-4.8186-1.3356,9.4409,9.4409,0,0,0-4.8882,1.3356Zm13.44-5.4536a16.18,16.18,0,0,1,0,28.3966,18.4317,18.4317,0,0,1-17.2872,0,15.9492,15.9492,0,0,1-8.3723-14.2314,15.9214,15.9214,0,0,1,8.3491-14.1652,18.6687,18.6687,0,0,1,17.31,0Z"/><polygon class="cls-4" points="1005.441 54.243 1013.406 54.243 1023.273 73.704 1033.048 54.243 1040.969 54.243 1040.969 85.923 1034.543 85.923 1034.543 64.517 1025.536 82.71 1020.92 82.71 1011.867 64.517 1011.867 85.923 1005.441 85.923 1005.441 54.243 1005.441 54.243"/><path class="cls-4" d="M1066.1535,69.517a5.0484,5.0484,0,0,0,1.6069-4.05,4.86,4.86,0,0,0-1.6069-3.9607,7.0945,7.0945,0,0,0-4.6389-1.3344h-5.9282V70.8972h5.9282a6.9181,6.9181,0,0,0,4.6389-1.38Zm5.0922-12.4q3.3043,2.8746,3.3032,8.1234,0,5.5215-3.3264,8.5769-3.327,3.0537-9.3462,3.0548h-6.29v9.0513h-7.1526v-31.68h13.4425q6.0645,0,9.3694,2.8737Z"/><path class="cls-4" d="M1088.1028,78.2071a6.86,6.86,0,0,0,5.1374,1.9689,6.5531,6.5531,0,0,0,4.9775-1.9474,7.4821,7.4821,0,0,0,1.8563-5.3851v-18.6h7.1513v18.6a14.64,14.64,0,0,1-1.6962,7.2182,11.5383,11.5383,0,0,1-4.8674,4.7069,15.9152,15.9152,0,0,1-7.4655,1.653,16.2037,16.2037,0,0,1-7.5144-1.653,11.6037,11.6037,0,0,1-4.9311-4.7069,14.46,14.46,0,0,1-1.7206-7.2182v-18.6h7.15v18.6a7.35,7.35,0,0,0,1.9224,5.3636Z"/><polygon class="cls-4" points="1110.981 54.243 1137.457 54.243 1137.457 60.307 1127.771 60.307 1127.771 85.923 1120.619 85.923 1120.619 60.307 1110.981 60.307 1110.981 54.243 1110.981 54.243"/><polygon class="cls-4" points="1141.756 54.243 1165.878 54.243 1165.878 60.172 1148.907 60.172 1148.907 67.051 1164.159 67.051 1164.159 72.979 1148.907 72.979 1148.907 79.995 1166.376 79.995 1166.376 85.923 1141.756 85.923 1141.756 54.243 1141.756 54.243"/><path class="cls-4" d="M1179.59,70.8972h6.6065a6.8473,6.8473,0,0,0,4.5948-1.38,5.0441,5.0441,0,0,0,1.6059-4.05,4.856,4.856,0,0,0-1.6059-3.9607,7.0211,7.0211,0,0,0-4.5948-1.3344H1179.59V70.8972Zm12.31,15.0262-5.0238-9.0513H1179.59v9.0513h-7.15v-31.68h13.7568q6.2018,0,9.5943,2.8737a10.0557,10.0557,0,0,1,3.396,8.1234,12.2565,12.2565,0,0,1-1.5177,6.2681,9.7408,9.7408,0,0,1-4.41,3.96L1200,85.9234Z"/><path class="cls-4" d="M941.8781,105.9486a15.734,15.734,0,0,0-4.6842-.882,5.5259,5.5259,0,0,0-2.9426.6782,2.2058,2.2058,0,0,0-1.0852,1.9916,2.7892,2.7892,0,0,0,1.56,2.5567,24.005,24.005,0,0,0,4.821,1.832,41.5586,41.5586,0,0,1,5.3624,1.9034,9.4952,9.4952,0,0,1,3.5977,2.85,7.9026,7.9026,0,0,1,1.4934,5.0249,8.61,8.61,0,0,1-1.6059,5.2259,9.9148,9.9148,0,0,1-4.4128,3.3264,16.9357,16.9357,0,0,1-6.3815,1.1316,21.8511,21.8511,0,0,1-7.5572-1.3577,20.39,20.39,0,0,1-6.4268-3.7125l2.8511-5.8376a19.3014,19.3014,0,0,0,5.5212,3.4861,14.8558,14.8558,0,0,0,5.7033,1.3115,6.2952,6.2952,0,0,0,3.4609-.8132,2.847,2.847,0,0,0,.4081-4.3682,6.4324,6.4324,0,0,0-2.1275-1.29q-1.2888-.4958-3.5526-1.131a40.5146,40.5146,0,0,1-5.3183-1.8116,9.3439,9.3439,0,0,1-3.5525-2.7606,7.6266,7.6266,0,0,1-1.4934-4.9321,8.38,8.38,0,0,1,1.5386-5.0024,9.7638,9.7638,0,0,1,4.3-3.3016,16.5546,16.5546,0,0,1,6.4267-1.156,22.27,22.27,0,0,1,6.4256.951,21.72,21.72,0,0,1,5.6129,2.5353l-2.7618,5.9284a23.9359,23.9359,0,0,0-5.1815-2.3766Z"/><path class="cls-4" d="M965.4343,106.5827a9.7359,9.7359,0,0,0-3.5757,3.6425,10.273,10.273,0,0,0,3.5978,13.85,9.2362,9.2362,0,0,0,4.8661,1.3579,9.1082,9.1082,0,0,0,4.82-1.3363,9.6957,9.6957,0,0,0,3.4841-3.6663,10.4185,10.4185,0,0,0,1.2905-5.1371,10.2154,10.2154,0,0,0-1.2905-5.068,9.7446,9.7446,0,0,0-3.4841-3.6425,9.107,9.107,0,0,0-4.82-1.336,9.45,9.45,0,0,0-4.8882,1.336Zm13.4414-5.4541a16.1834,16.1834,0,0,1,0,28.3983,18.4469,18.4469,0,0,1-17.2884,0,15.9493,15.9493,0,0,1-8.3723-14.2337,15.9232,15.9232,0,0,1,8.3491-14.1646,18.6711,18.6711,0,0,1,17.3116,0Z"/><path class="cls-4" d="M1010.7127,106.3562a9.6956,9.6956,0,0,0-4.4105-1.1095,9.5054,9.5054,0,0,0-8.3746,4.8879,10.104,10.104,0,0,0-1.2661,5.025,10.2177,10.2177,0,0,0,1.2661,5.0453,9.5664,9.5664,0,0,0,3.4852,3.621,9.305,9.305,0,0,0,4.8894,1.3357,10.2022,10.2022,0,0,0,4.32-1.0187,13.5659,13.5659,0,0,0,3.9154-2.7377l4.2088,4.5692a19.0327,19.0327,0,0,1-5.95,4.1647,16.5871,16.5871,0,0,1-6.857,1.5385,16.8821,16.8821,0,0,1-8.4638-2.1507,15.707,15.707,0,0,1-5.9735-5.9036,16.4157,16.4157,0,0,1-2.1716-8.3743,15.8,15.8,0,0,1,8.3039-14.12,17.4979,17.4979,0,0,1,8.5764-2.1276,17.8913,17.8913,0,0,1,12.4918,5.2956l-4.1648,5.1145a12.0127,12.0127,0,0,0-3.8249-3.0549Z"/><polygon class="cls-4" points="1023.454 99.499 1030.604 99.499 1030.604 131.18 1023.454 131.18 1023.454 99.499 1023.454 99.499"/><polygon class="cls-4" points="1038.071 99.499 1062.192 99.499 1062.192 105.428 1045.22 105.428 1045.22 112.309 1060.472 112.309 1060.472 118.237 1045.22 118.237 1045.22 125.251 1062.689 125.251 1062.689 131.18 1038.071 131.18 1038.071 99.499 1038.071 99.499"/><polygon class="cls-4" points="1065.631 99.499 1092.106 99.499 1092.106 105.565 1082.422 105.565 1082.422 131.18 1075.272 131.18 1075.272 105.565 1065.631 105.565 1065.631 99.499 1065.631 99.499"/><polygon class="cls-4" points="1123.199 99.499 1111.658 120.951 1111.658 131.18 1104.508 131.18 1104.508 121.133 1092.786 99.499 1099.981 99.499 1108.084 113.71 1116.003 99.499 1123.199 99.499 1123.199 99.499"/><path class="cls-5" d="M837.7191,100.575c.0091,7.4446.5344,7.7038,5.7293,8.0469l5.359.3148.2326.1234a3.22,3.22,0,0,1,1.3627,3.2756,2.7184,2.7184,0,0,1-1.8971,2.4593l-.1647.0373-.17-.0067c-4.2109-.188-11.5439-.2989-19.6158-.2989-8.509,0-15.84.1086-20.1142.2989l-.17.0067-.1647-.0373a2.719,2.719,0,0,1-1.8971-2.4593,3.2206,3.2206,0,0,1,1.3627-3.2756l.2327-.1234,5.3674-.3148c5.1908-.3431,5.7122-.6023,5.7214-8.0628-20.4549-2.3-33.198-12.2047-33.198-26.5312,0-14.429,10.9908-23.671,30.5569-26.2713.07,1.8642.1257,4.3677.1653,7.2459a28.9768,28.9768,0,0,0-3.3559,1.0434l-.5079.1885a12.7532,12.7532,0,0,0-8.08,8.2757l-.0459.13c-.71,1.704-1.1005,4.9231-1.1005,9.066l.0006.1722-.0006.1708c0,4.1431.3906,7.362,1.1005,9.065l.0521.1518a12.3925,12.3925,0,0,0,5.5136,7.01c3.85,2.5622,11.2044,3.8847,18.5017,3.8847,7.9847,0,16.0351-1.5841,19.4891-4.6433a12.3618,12.3618,0,0,0,4.4164-6.27l.0458-.1335c.71-1.703,1.1005-4.9219,1.1005-9.065l-.001-.1573.001-.1857c0-4.1429-.3906-7.362-1.1005-9.066l-.0447-.1257a12.7207,12.7207,0,0,0-8.0329-8.26l-.5253-.1964a32.4763,32.4763,0,0,0-6.1261-1.6657V90.74a51.0235,51.0235,0,0,1-9.2223.7915,50.6009,50.6009,0,0,1-9.6015-.864V82.25c.1663-7.8432.335-20.2754.146-29.0725l.0017.0016c-.0006-.2106-.1489-6.1651-.15-6.3622-.0357-5.7575-.5831-6.3678-4.9084-6.8422l-6.0843-.7008a3.1075,3.1075,0,0,1-1.623-2.7419,3.0684,3.0684,0,0,1,1.2432-2.8878l.2219-.1359.2577-.0294c4.452-.5254,10.0691-1.5179,15.8159-2.7933,3.0271-.7224,5.8385-1.6379,7.8925-2.307a15.0324,15.0324,0,0,1,3.4455-.9369,2.9442,2.9442,0,0,1,2.885,1.9469l.073.2361-.0267.248c-.2292,2.124-.3662,6.5472-.3662,11.8247v5.7179C859.0346,49.4849,871.05,58.9234,871.05,74.0279c0,14.3583-12.7969,24.2769-33.33,26.5471Zm-9.4844-84.1114c-34.3,0-62.1051,25.433-62.1051,56.8045s27.8055,56.8037,62.1051,56.8037S890.34,104.6408,890.34,73.2681s-27.8056-56.8045-62.1052-56.8045Z"/><path class="cls-5" d="M871.5993,126.5657h1.5732l2.615,5.3821,2.5962-5.3821h1.592v7.96h-1.2319v-6.0638l-2.5209,5.23h-.8714l-2.52-5.23v6.0638h-1.2319v-7.96Zm-7.315,0h6.14v1.1757h-2.4066v6.7838h-1.3457v-6.7838h-2.3879v-1.1757Z"/></g></g></g></svg>